<?xml version="1.0" encoding="UTF-8"?>
<!-- Generator: Adobe Illustrator 23.1.1, SVG Export Plug-In . SVG Version: 6.00 Build 0)  -->
<svg version="1.1" id="Layer_1" xmlns="http://www.w3.org/2000/svg" xmlns:xlink="http://www.w3.org/1999/xlink" x="0px" y="0px" viewBox="0 0 80.4 36" style="enable-background:new 0 0 80.4 36;" xml:space="preserve">
<style type="text/css">
	.st0{fill:#6F5F5E;}
	.st1{fill:#F26322;}
</style>
<g>
	<path class="st0" d="M70.6,10.3h2.7l2.2,4.2l2.3-4.2h2.6l-3.8,6.2v4.2h-2.3v-4.1L70.6,10.3z"/>
	<path class="st0" d="M45.9,10.4h2.4l2.1,7l2.3-7h1.9l2.3,7l2.6-7H62l-4,10.4h-2L53.7,14l-2.3,6.8h-2L45.9,10.4z"/>
	<path class="st0" d="M67.9,16.4l-1.4-3.5l-1.4,3.5H67.9z M64.5,18.5l-0.9,2.3h-2.3l4.1-10.4h2.3l4.1,10.4h-2.3l-0.9-2.3H64.5z"/>
	<g>
		<path class="st1" d="M41.1,5.4c0,0.1,0,0.2,0,0.3c0,1.2-1,2.2-2.2,2.2c-1.2,0-2.2-1-2.2-2.2c0-1.2,1-2.2,2.2-2.2    c0.2,0,0.4,0,0.6,0.1c-0.8-0.7-1.8-1.4-2.9-1.9c-8.5-4.2-22.2-0.2-30.5,8.8C5.4,11.3,4.7,12.2,4,13c0,0,0,0,0,0    c1.4-1.5,3.1-3,4.6-3c1.1,0,1.6,0.6,1.6,1.8c0,1.4-1.8,5.5-2.2,7l0.1,0.1c1.6-2.6,6.7-8.8,9.6-8.8c1.1,0,1.7,0.6,1.7,1.8    c0,1.4-1.8,5.5-2.2,7l0.1,0.1c1.6-2.6,6.7-8.8,9.9-8.8c1.2,0,1.9,0.3,1.9,1.9c0,1.8-3.6,9.9-3.6,11.3c0,0.2,0.1,0.5,0.4,0.5    c0.8,0,2.5-2.2,2.9-2.7l0.6,0.7c-2.6,3.1-4.3,5.1-6.5,5.1c-0.9,0-1.6-0.7-1.6-1.6c0-1.7,3.2-9.7,3.2-10.6c0-0.5-0.3-0.9-0.7-0.9    c-1.8,0-5.3,4.6-6.7,7.6c-2,4.2-1.7,5.1-3.1,5.1c-1.9,0-2.4-0.2-2.4-0.7c0-0.4,0.4-1.6,0.6-2l2.7-7.7c0.1-0.4,0.3-1.2,0.3-1.7    c0-0.5-0.1-0.7-0.6-0.7c-1.9,0-5.7,5.6-6.7,7.4c-2.1,3.9-1.8,5.3-3.1,5.3c-1.8,0-2.4-0.1-2.4-0.5c0-0.3,0.2-0.9,0.5-1.8L5.7,16    c0.2-0.7,0.5-1.4,0.5-1.7c0-0.2-0.1-0.5-0.5-0.5c-0.6-0.1-1.4,0.2-2.5,1.3c-1.2,1.2-2.1,3.1-2.4,4l0,0c-2.1,6.4-0.2,12.3,5.7,15.2    c8.5,4.2,22.2,0.2,30.5-8.8c0.1-0.1,0.3-0.3,0.4-0.4l0,0c0,0,0,0,0,0c-1.2,1-2.5,1.6-3.7,1.6C32.7,26.7,32,26,32,25    c0-1.7,3.2-9.7,3.2-10.9c0-0.6-0.1-0.8-0.5-0.8c-0.9,0.1-1.8,1.8-2.5,2.5l-0.7-0.7c1.3-1.7,4.2-5.3,6.3-5.3c1.2,0,1.9,0.3,1.9,1.9    c0,1.8-3.6,9.9-3.6,11.3c0,0.2,0.1,0.4,0.4,0.5c1,0.1,2.1-0.9,3-2c1.4-1.7,2.3-3.7,2.6-4.4h0C43.7,12.8,43.4,8.5,41.1,5.4z"/>
	</g>
</g>
</svg>