<?xml version="1.0" encoding="UTF-8" standalone="no"?>
<!DOCTYPE svg PUBLIC "-//W3C//DTD SVG 1.1//EN" "http://www.w3.org/Graphics/SVG/1.1/DTD/svg11.dtd">
<svg width="100%" height="100%" viewBox="0 0 111 17" version="1.1" xmlns="http://www.w3.org/2000/svg" xmlns:xlink="http://www.w3.org/1999/xlink" xml:space="preserve" xmlns:serif="http://www.serif.com/" style="fill-rule:evenodd;clip-rule:evenodd;stroke-linejoin:round;stroke-miterlimit:1.41421;">
    <g transform="matrix(1,0,0,1,-64,-31)">
        <path d="M80.895,39.801L81.047,39.495L81.155,39.188L81.198,38.882L81.198,38.619L81.133,38.379L81.025,38.203L80.853,38.116L80.679,38.094L80.506,38.16L80.377,38.269L80.247,38.401L80.117,38.51L79.988,38.554L79.837,38.51L79.729,38.379L79.707,38.225C80.131,37.361 80.786,36.433 80.009,35.423L79.772,35.292L79.512,35.292L79.383,35.358L79.296,35.468L79.231,35.62L79.167,35.774L79.102,35.905L78.994,35.993L78.842,35.993L78.713,35.927L78.626,35.796L78.584,35.62L78.54,35.402L78.497,35.139L78.411,34.855L78.281,34.548L78.086,34.242L77.827,33.935L77.438,33.651L77.006,33.432L76.573,33.323L76.206,33.323L75.86,33.388L75.061,33.016L74.219,32.753L73.333,32.578L72.404,32.535L71.409,32.601L70.481,32.775L69.594,33.082L68.752,33.476L67.996,33.979C60.404,40.379 69.619,50.631 77.135,44.747L77.417,44.572L77.676,44.375L77.957,44.201C78.887,43.571 80.877,43.037 80.766,41.617L80.722,41.486L80.679,41.398L80.549,41.311L80.42,41.289L80.269,41.311L80.096,41.377L79.966,41.42L79.837,41.42L79.729,41.377L79.62,41.202L79.664,41.026L79.793,40.851L79.988,40.654L80.225,40.458L80.485,40.261L80.722,40.042L80.895,39.801ZM72.404,45.886L71.604,45.82L70.848,45.623C65.161,43.462 65.989,33.427 72.404,33.126L73.246,33.17L74.089,33.345C80.234,35.218 80.253,43.806 74.089,45.644L73.246,45.82L72.404,45.886Z" style="fill:rgb(213,161,14);fill-rule:nonzero;"/>
        <path d="M74.715,35.708L74.867,35.992L75.061,36.277L75.255,36.54L75.45,36.781L75.644,37.021L75.774,37.219L75.86,37.394L75.86,37.546L75.774,37.678L75.601,37.743L75.428,37.722L75.277,37.612L75.104,37.481L74.953,37.328L74.801,37.196L74.607,37.108L74.434,37.108L74.218,37.196L74.067,37.371L73.937,37.612L73.872,37.919L73.872,38.269L73.981,38.685L74.089,38.925L74.24,39.188L74.434,39.472L74.629,39.735L74.845,40.02L75.017,40.304L75.169,40.545L75.277,40.785L75.299,40.983L75.255,41.136L75.104,41.245L74.932,41.289L74.801,41.245L74.672,41.136L74.564,41.005L74.434,40.873L74.305,40.742L74.153,40.654L73.981,40.61L73.742,40.676L73.549,40.851L73.419,41.114L73.376,41.442L73.419,41.793L73.591,42.187L73.872,42.602L74.261,43.062L74.564,43.478L74.758,43.828L74.888,44.135L74.953,44.419L74.953,44.659L74.909,44.856L75.406,44.419C77.673,42.081 77.679,36.982 75.428,34.613L74.932,34.176L74.78,34.395L74.672,34.679L74.607,35.008L74.629,35.357L74.715,35.708Z" style="fill:rgb(0,82,155);fill-rule:nonzero;"/>
        <path d="M89.278,37.174L89.711,37.239L90.078,37.393C91.437,38.156 91.439,41.365 89.711,41.727L89.3,41.792L88.976,41.748C87.201,41.408 86.986,38.171 88.479,37.371L88.868,37.218L89.278,37.174ZM92.131,39.516L92.087,38.969L91.936,38.466C90.887,36.003 86.984,36.291 86.47,39.013L86.427,39.45L86.47,40.041C87.074,42.732 90.937,42.99 91.958,40.501L92.087,40.041L92.131,39.516Z" style="fill:rgb(0,82,155);fill-rule:nonzero;"/>
        <path d="M94.616,40.282L94.724,40.042C94.922,39.503 95.133,38.966 95.372,38.444L95.394,38.379L95.416,38.422C95.603,38.941 95.81,39.453 96.042,39.954L96.172,40.282L94.616,40.282ZM95.675,36.693L95.653,36.759L95.589,36.912C95.245,37.614 94.976,38.406 94.659,39.122L94.443,39.582L94.27,40.042C93.964,40.611 93.745,41.361 93.427,41.902L93.32,42.012L93.147,42.143L94.205,42.143L94.054,42.055L94.011,41.924L94.033,41.749L94.054,41.661L94.119,41.486L94.227,41.268L94.335,40.983L94.464,40.676L96.345,40.676L96.474,40.983L96.582,41.268L96.69,41.508L96.755,41.683L96.777,41.771L96.798,41.924L96.755,42.034L96.604,42.143L98.246,42.143L98.052,42.034C97.21,40.583 96.446,38.337 95.696,36.759L95.675,36.693Z" style="fill:rgb(0,82,155);fill-rule:nonzero;"/>
        <path d="M104.058,41.88L104.231,42.011L104.49,42.143L102.718,42.143L102.783,42.099L102.826,42.055L102.826,42.011L102.847,41.946L102.826,41.902L102.783,41.836L102.675,41.705L102.524,41.508L102.307,41.267C101.892,40.755 101.446,40.253 101.011,39.757L100.903,39.625L100.838,39.56L100.838,41.792L100.86,41.902L100.881,41.967L100.925,42.033L100.968,42.099L101.033,42.143L99.671,42.143L99.736,42.099L99.801,42.033L99.844,41.967L99.865,41.902L99.865,37.108L99.844,37.021L99.801,36.956L99.736,36.912L99.671,36.868L101.033,36.868L100.968,36.912L100.925,36.956L100.881,37.021L100.86,37.108L100.838,37.218L100.838,39.231L100.903,39.165L101.033,39.034C101.396,38.683 101.837,38.31 102.156,37.94L102.394,37.722L102.61,37.502L102.783,37.328L102.891,37.196L102.956,37.131L102.977,37.087L102.977,37.021L102.956,36.977L102.934,36.912L102.869,36.868L104.166,36.868L103.95,36.934L103.733,37.043L103.56,37.174L101.681,39.034L104.058,41.88Z" style="fill:rgb(0,82,155);fill-rule:nonzero;"/>
        <path d="M109.395,37.24L109.417,37.065L109.373,36.956L109.222,36.868L110.151,36.868L110.044,36.956L109.979,37.022C109.745,37.45 109.537,38.104 109.352,38.554L109.179,38.97L109.006,39.429C108.683,40.331 108.306,41.205 107.969,42.099L107.904,42.252L107.882,42.318L107.861,42.252C107.207,40.873 106.277,38.043 105.506,36.956L105.333,36.868L107.019,36.868L106.91,36.934L106.846,37.043C106.82,37.301 106.976,37.526 107.04,37.766L107.17,38.05L107.3,38.401C107.567,39.044 107.799,39.7 108.077,40.348L108.142,40.502L108.164,40.545L108.185,40.502C108.554,39.428 108.993,38.378 109.373,37.306L109.395,37.24Z" style="fill:rgb(0,82,155);fill-rule:nonzero;"/>
        <path d="M113.285,36.868L113.22,36.912L113.155,36.956L113.134,37.021L113.091,37.108L113.091,41.902L113.134,41.968L113.155,42.033L113.22,42.099L113.285,42.143L111.902,42.143L111.967,42.099L112.031,42.033L112.075,41.968L112.096,41.902L112.096,37.108L112.075,37.021L112.031,36.956L111.967,36.912L111.902,36.868L113.285,36.868Z" style="fill:rgb(0,82,155);fill-rule:nonzero;"/>
        <path d="M117.261,37.219L117.261,41.705L117.455,41.727L117.757,41.727L118.103,41.749L118.557,41.727L118.882,41.684L119.119,41.617L119.314,41.464L119.465,41.246L119.293,42.143L116.073,42.143L116.137,42.099L116.202,42.034L116.245,41.968L116.267,41.902L116.267,37.109L116.245,37.022L116.202,36.956L116.137,36.913L116.073,36.868L117.455,36.868L117.391,36.913L117.326,36.956L117.282,37.022L117.261,37.109L117.261,37.219Z" style="fill:rgb(0,82,155);fill-rule:nonzero;"/>
        <path d="M122.576,37.219L122.576,41.705L122.792,41.727L123.094,41.727L123.44,41.749L123.872,41.727L124.218,41.684L124.455,41.617L124.65,41.464L124.801,41.246L124.628,42.143L121.387,42.143L121.473,42.099L121.517,42.034L121.56,41.968L121.603,41.902L121.603,37.109L121.56,37.022L121.517,36.956L121.473,36.913L121.387,36.868L122.792,36.868L122.706,36.913L122.662,36.956L122.619,37.022L122.597,37.109L122.576,37.219Z" style="fill:rgb(0,82,155);fill-rule:nonzero;"/>
        <path d="M129.793,37.546L129.642,37.393L129.447,37.305L129.188,37.262L128.842,37.262L128.583,37.239L127.891,37.239L127.891,39.034L129.036,39.034L129.123,39.013L129.188,38.991L129.231,38.925L129.296,38.882L129.318,38.816L129.318,39.647L129.296,39.582L129.231,39.516L129.188,39.472L129.123,39.428L129.036,39.407L127.891,39.407L127.891,41.705L128.064,41.727L128.302,41.748L128.885,41.748L129.252,41.727L129.534,41.705L129.771,41.639L129.966,41.486L130.139,41.245L129.987,42.143L126.681,42.143L126.746,42.098L126.79,42.055L126.854,42.011L126.876,41.946L126.898,41.88L126.919,41.792L126.919,37.218L126.898,37.108L126.876,37.021L126.811,36.956L126.746,36.912L126.681,36.868L129.771,36.868L129.793,37.546Z" style="fill:rgb(0,82,155);fill-rule:nonzero;"/>
        <path d="M137.507,37.24L137.507,41.902L137.529,41.968L137.572,42.034L137.637,42.099L137.701,42.143L136.319,42.143L136.405,42.099L136.448,42.034L136.492,41.968L136.513,41.902L136.534,41.793L136.534,37.24L136.189,37.263L135.843,37.263L135.562,37.285L135.368,37.306L135.303,37.306L135.13,37.35L135,37.481L134.914,37.612L134.914,36.868L139.127,36.868L139.127,37.612L139.041,37.481L138.912,37.372L138.76,37.306L138.695,37.306L138.566,37.285L138.35,37.285L138.069,37.263L137.788,37.263L137.507,37.24Z" style="fill:rgb(0,82,155);fill-rule:nonzero;"/>
        <path d="M142.606,37.24L142.887,37.263L143.124,37.372C143.528,37.596 143.653,38.157 143.535,38.576L143.405,38.839L143.232,39.057C142.907,39.301 142.591,39.33 142.217,39.276L142.152,39.276L142.152,37.24L142.606,37.24ZM144.594,38.16L144.572,37.984C144.441,37.111 143.383,36.815 142.628,36.868L140.985,36.868L141.05,36.913L141.094,36.956L141.137,37.022L141.18,37.109L141.18,41.902L141.137,41.968L141.094,42.034L141.05,42.099L140.985,42.143L142.368,42.143L142.304,42.099L142.239,42.034L142.195,41.968L142.174,41.902L142.152,41.793L142.152,39.67L142.195,39.67C142.354,39.674 142.514,39.656 142.671,39.692L142.822,39.801L142.952,39.954L143.082,40.13L143.189,40.305L143.492,40.786L143.816,41.29L144.162,41.793L144.335,41.968L144.572,42.099L144.831,42.165L145.847,42.143L145.804,42.143L145.717,42.099C145.264,41.92 145.093,41.424 144.81,41.071L144.659,40.83L144.507,40.589C144.237,40.241 144.163,39.925 143.794,39.648L143.578,39.539L143.298,39.473L143.535,39.429C144.002,39.329 144.403,38.963 144.551,38.51L144.594,38.16Z" style="fill:rgb(0,82,155);fill-rule:nonzero;"/>
        <path d="M147.986,40.282L148.094,40.042C148.286,39.515 148.513,38.97 148.721,38.444L148.743,38.379L148.764,38.422C148.967,38.934 149.195,39.438 149.391,39.954L149.542,40.282L147.986,40.282ZM149.045,36.693L149.023,36.759L148.959,36.912C148.632,37.632 148.332,38.395 148.008,39.122L147.619,40.042C147.365,40.582 147.078,41.4 146.797,41.902L146.69,42.012L146.517,42.143L147.576,42.143L147.425,42.055L147.36,41.924L147.403,41.749L147.425,41.661L147.489,41.486L147.576,41.268L147.706,40.983L147.835,40.676L149.715,40.676L149.845,41.005L149.952,41.268L150.039,41.508L150.104,41.683L150.147,41.771L150.169,41.924L150.104,42.034L149.952,42.143L151.616,42.143L151.401,42.034L151.292,41.902C151.084,41.422 150.839,40.942 150.665,40.458L150.471,40.042L150.277,39.582C149.896,38.698 149.521,37.791 149.132,36.912L149.067,36.759L149.045,36.693Z" style="fill:rgb(0,82,155);fill-rule:nonzero;"/>
        <path d="M156.975,37.219L156.975,37.109L156.931,37.022L156.91,36.956L156.845,36.913L156.78,36.868L157.623,36.868L157.558,36.913L157.515,36.956L157.472,37.022L157.45,37.109L157.429,37.219L157.429,42.362L157.386,42.318C156.176,40.875 154.964,39.428 153.777,37.963L153.755,37.897L153.755,41.902L153.777,41.968L153.82,42.034L153.885,42.099L153.971,42.143L153.107,42.143L153.172,42.099L153.236,42.034L153.28,41.968L153.302,41.902L153.302,37.35L153.258,37.263L153.172,37.153L153.107,37.088L153.02,37L152.934,36.934L152.826,36.868L154.145,36.868L156.975,40.282L156.975,37.219Z" style="fill:rgb(0,82,155);fill-rule:nonzero;"/>
        <path d="M163.198,40.588L163.155,40.982C162.727,42.297 161.297,42.47 160.173,41.967L159.935,41.858L159.892,40.544L159.979,40.785L160.108,41.026C160.916,42.741 163.403,41.329 161.75,40.064L161.491,39.932L161.21,39.801C158.983,38.915 159.812,36.413 162.117,36.824L162.442,36.912L162.744,37.065L162.788,38.203L162.701,37.984L162.571,37.765C162.111,37.022 160.883,36.942 160.713,37.765L160.692,37.918L160.735,38.181L160.843,38.378L161.059,38.553L161.362,38.728L161.729,38.904L162.01,39.034L162.269,39.166L162.507,39.319L162.744,39.472L162.917,39.669L163.068,39.932L163.155,40.216L163.198,40.588Z" style="fill:rgb(0,82,155);fill-rule:nonzero;"/>
        <path d="M166.872,36.868L166.807,36.912L166.742,36.956L166.699,37.021L166.677,37.108L166.677,41.902L166.699,41.968L166.742,42.033L166.807,42.099L166.872,42.143L165.488,42.143L165.554,42.099L165.597,42.033L165.64,41.968L165.661,41.902L165.684,41.793L165.684,37.219L165.661,37.108L165.64,37.021L165.597,36.956L165.554,36.912L165.488,36.868L166.872,36.868Z" style="fill:rgb(0,82,155);fill-rule:nonzero;"/>
        <path d="M171.517,37.24L171.517,41.793L171.539,41.902L171.56,41.968L171.603,42.034L171.647,42.099L171.711,42.143L170.35,42.143L170.415,42.099L170.48,42.034L170.501,41.968L170.545,41.902L170.545,37.24L170.199,37.263L169.875,37.263L169.594,37.285L169.4,37.306L169.313,37.306L169.162,37.35L169.032,37.481L168.924,37.612L168.924,36.868L173.375,36.868L173.375,37.612L173.289,37.503C172.825,37.219 172.353,37.29 171.819,37.263L171.517,37.24Z" style="fill:rgb(0,82,155);fill-rule:nonzero;"/>
    </g>
</svg>
