<?xml version="1.0" encoding="UTF-8" standalone="no"?>
<svg
   width="259"
   height="81"
   viewBox="0 0 259 81"
   fill="none"
   version="1.1"
   id="svg44"
   sodipodi:docname="UP_Express_Black.svg"
   inkscape:version="1.2.2 (732a01da63, 2022-12-09)"
   xmlns:inkscape="http://www.inkscape.org/namespaces/inkscape"
   xmlns:sodipodi="http://sodipodi.sourceforge.net/DTD/sodipodi-0.dtd"
   xmlns="http://www.w3.org/2000/svg"
   xmlns:svg="http://www.w3.org/2000/svg">
  <defs
     id="defs48" />
  <sodipodi:namedview
     id="namedview46"
     pagecolor="#ffffff"
     bordercolor="#000000"
     borderopacity="0.25"
     inkscape:showpageshadow="2"
     inkscape:pageopacity="0.0"
     inkscape:pagecheckerboard="0"
     inkscape:deskcolor="#d1d1d1"
     showgrid="false"
     inkscape:zoom="4.6718147"
     inkscape:cx="129.60702"
     inkscape:cy="40.455372"
     inkscape:window-width="1920"
     inkscape:window-height="1017"
     inkscape:window-x="-8"
     inkscape:window-y="-8"
     inkscape:window-maximized="1"
     inkscape:current-layer="svg44" />
  <path
     fill-rule="evenodd"
     clip-rule="evenodd"
     d="M173.56 13.2673C173.56 16.0166 173.08 17.9126 171.69 19.4139C170.33 20.8886 168.205 21.7393 165.373 21.7393C162.512 21.7393 160.416 20.8886 159.024 19.4139C157.666 17.9126 157.184 16.0166 157.184 13.2673V1.87793H161.802V13.2673C161.802 14.6539 161.917 15.7313 162.568 16.5233C163.192 17.2619 164.096 17.7446 165.373 17.7446C166.648 17.7446 167.554 17.2619 168.178 16.5233C168.829 15.7313 168.944 14.6539 168.944 13.2673V1.87793H173.56V13.2673Z"
     fill="#FEFEFE"
     id="path2"
     style="fill:#000000" />
  <path
     fill-rule="evenodd"
     clip-rule="evenodd"
     d="M190.296 21.4271H185.763V14.1445C185.763 12.3045 185.48 10.9151 183.611 10.9151C181.653 10.9151 181.117 12.5018 181.117 14.5151V21.4271H176.584V7.45913H181.117L181.088 9.47246H181.147C181.909 8.22446 183.187 7.20312 185.195 7.20312C189.248 7.20312 190.296 9.81113 190.296 13.1818V21.4271Z"
     fill="#FEFEFE"
     id="path4"
     style="fill:#000000" />
  <path
     fill-rule="evenodd"
     clip-rule="evenodd"
     d="M195.326 5.84365C193.798 5.84365 192.75 4.90765 192.75 3.49165C192.75 2.10232 193.798 1.13965 195.326 1.13965C196.859 1.13965 197.905 2.10232 197.905 3.49165C197.905 4.90765 196.859 5.84365 195.326 5.84365ZM193.062 21.428H197.596V7.45996H193.062V21.428Z"
     fill="#FEFEFE"
     id="path6"
     style="fill:#000000" />
  <path
     fill-rule="evenodd"
     clip-rule="evenodd"
     d="M207.337 21.7384C202.918 21.7384 199.574 18.9917 199.574 14.4851C199.574 9.98108 202.918 7.20508 207.337 7.20508C211.758 7.20508 215.073 9.98108 215.073 14.4851C215.073 18.9917 211.758 21.7384 207.337 21.7384ZM207.337 10.7734C205.327 10.7734 204.164 12.3308 204.164 14.4001C204.164 16.4694 205.327 18.0268 207.337 18.0268C209.321 18.0268 210.511 16.4694 210.511 14.4001C210.511 12.3308 209.321 10.7734 207.337 10.7734Z"
     fill="#FEFEFE"
     id="path8"
     style="fill:#000000" />
  <path
     fill-rule="evenodd"
     clip-rule="evenodd"
     d="M230.855 21.4271H226.324V14.1445C226.324 12.3045 226.039 10.9151 224.169 10.9151C222.212 10.9151 221.673 12.5018 221.673 14.5151V21.4271H217.143V7.45913H221.673L221.647 9.47246H221.703C222.468 8.22446 223.745 7.20312 225.753 7.20312C229.804 7.20312 230.855 9.81113 230.855 13.1818V21.4271Z"
     fill="#FEFEFE"
     id="path10"
     style="fill:#000000" />
  <path
     fill-rule="evenodd"
     clip-rule="evenodd"
     d="M169.423 39.8458C168.119 40.9231 166.335 41.3205 164.322 41.3205H161.916V48.5445H157.324V28.9951H164.322C166.335 28.9951 168.119 29.3925 169.423 30.4698C170.724 31.5445 171.463 33.0458 171.463 35.1418C171.463 37.2404 170.724 38.7418 169.423 39.8458ZM165.882 33.0748C165.314 32.6775 164.663 32.5361 163.671 32.5361H161.885V37.7761H163.671C164.663 37.7761 165.314 37.6348 165.882 37.2401C166.421 36.8428 166.815 36.1361 166.815 35.1415C166.815 34.1521 166.421 33.4721 165.882 33.0748Z"
     fill="#FEFEFE"
     id="path12"
     style="fill:#000000" />
  <path
     fill-rule="evenodd"
     clip-rule="evenodd"
     d="M186.514 42.652H176.57C176.77 44.6626 178.298 45.5693 180.141 45.5693C181.954 45.5693 183.538 44.7746 184.33 44.2386L186.12 46.5906C185.664 46.932 183.824 48.8546 179.488 48.8546C175.184 48.8546 172.037 46.1933 172.037 41.5746C172.037 36.956 175.437 34.3213 179.573 34.3213C183.709 34.3213 186.573 37.0706 186.573 41.1506C186.573 41.8306 186.514 42.652 186.514 42.652ZM182.352 40.0732C182.323 38.7985 181.387 37.2705 179.488 37.2705C177.619 37.2705 176.654 38.7398 176.598 40.0732H182.352Z"
     fill="#FEFEFE"
     id="path14"
     style="fill:#000000" />
  <path
     fill-rule="evenodd"
     clip-rule="evenodd"
     d="M201.101 48.5456H196.768L196.68 47.0736C196.088 47.6682 194.952 48.8576 192.688 48.8576C190.221 48.8576 187.613 47.5269 187.613 44.4096C187.613 41.2922 190.477 40.2442 193.056 40.1296L196.568 39.9882V39.6789C196.568 38.2042 195.52 37.4389 193.707 37.4389C191.92 37.4389 190.136 38.2309 189.427 38.6842L188.237 35.7402C189.427 35.1429 191.611 34.3242 194.216 34.3242C196.824 34.3242 198.325 34.9189 199.429 35.9376C200.504 36.9589 201.101 38.3162 201.101 40.6682V48.5456ZM196.594 42.3984L194.356 42.5398C192.97 42.5958 192.148 43.1904 192.148 44.2358C192.148 45.3158 193.026 45.9664 194.271 45.9664C195.49 45.9664 196.311 45.1744 196.594 44.6918V42.3984Z"
     fill="#FEFEFE"
     id="path16"
     style="fill:#000000" />
  <path
     fill-rule="evenodd"
     clip-rule="evenodd"
     d="M212.992 38.7409H212.795C212.539 38.5996 211.944 38.4023 211.152 38.4023C210.133 38.4023 209.397 38.9676 209.056 39.4209C208.717 39.8769 208.349 40.7836 208.349 42.3383V48.5463H203.811V34.5783H208.349L208.317 36.5596H208.376C209.168 35.0316 210.331 34.3223 211.832 34.3223C212.765 34.3223 213.248 34.5783 213.248 34.5783L212.992 38.7409Z"
     fill="#FEFEFE"
     id="path18"
     style="fill:#000000" />
  <path
     fill-rule="evenodd"
     clip-rule="evenodd"
     d="M223.611 47.6379C222.589 48.4326 221.203 48.8566 219.331 48.8566C217.235 48.8566 215.027 48.2059 213.438 46.7046L215.139 44.0113C216.269 44.9766 218.141 45.7126 219.275 45.7126C220.408 45.7126 221.203 45.4273 221.203 44.5233C221.203 43.6166 219.16 43.1606 218.651 42.9926C218.112 42.8513 217.32 42.6219 216.67 42.3393C216.016 42.0566 214.288 41.1793 214.288 38.6859C214.288 35.9633 216.67 34.2939 219.587 34.2939C222.504 34.2939 224.149 35.3686 224.941 36.0219L223.469 38.6859C222.675 38.0646 221.088 37.3259 219.955 37.3259C218.88 37.3259 218.283 37.6086 218.283 38.3473C218.283 39.0833 219.36 39.4219 220.323 39.7046C221.286 39.9873 221.71 40.1286 222.307 40.3579C222.931 40.5819 223.638 40.9526 224.118 41.4033C224.571 41.8593 225.253 42.7633 225.253 44.2379C225.253 45.6833 224.629 46.8193 223.611 47.6379Z"
     fill="#FEFEFE"
     id="path20"
     style="fill:#000000" />
  <path
     fill-rule="evenodd"
     clip-rule="evenodd"
     d="M234.142 48.8556C229.724 48.8556 226.377 46.1063 226.377 41.6049C226.377 37.0983 229.724 34.3223 234.142 34.3223C238.561 34.3223 241.878 37.0983 241.878 41.6049C241.878 46.1063 238.561 48.8556 234.142 48.8556ZM234.142 37.8926C232.131 37.8926 230.969 39.4499 230.969 41.5192C230.969 43.5859 232.131 45.1432 234.142 45.1432C236.123 45.1432 237.315 43.5859 237.315 41.5192C237.315 39.4499 236.123 37.8926 234.142 37.8926Z"
     fill="#FEFEFE"
     id="path22"
     style="fill:#000000" />
  <path
     fill-rule="evenodd"
     clip-rule="evenodd"
     d="M257.66 48.5456H253.127V41.2629C253.127 39.4229 252.841 38.0336 250.975 38.0336C249.017 38.0336 248.479 39.6202 248.479 41.6309V48.5456H243.945V34.5802H248.479L248.452 36.5882H248.508C249.273 35.3429 250.548 34.3242 252.559 34.3242C256.612 34.3242 257.66 36.9296 257.66 40.3002V48.5456Z"
     fill="#FEFEFE"
     id="path24"
     style="fill:#000000" />
  <path
     fill-rule="evenodd"
     clip-rule="evenodd"
     d="M170.244 75.6633H157.324V56.1113H169.988V59.77H161.884V63.762H169.535V67.418H161.884V71.9513H170.244V75.6633Z"
     fill="#FEFEFE"
     id="path26"
     style="fill:#000000" />
  <path
     fill-rule="evenodd"
     clip-rule="evenodd"
     d="M187.857 75.6633H182.699L179.555 71.0153L176.382 75.6633H171.225L176.835 68.3806L171.819 61.6953H176.947L179.555 65.8873L182.131 61.6953H187.262L182.246 68.3806L187.857 75.6633Z"
     fill="#FEFEFE"
     id="path28"
     style="fill:#000000" />
  <path
     fill-rule="evenodd"
     clip-rule="evenodd"
     d="M198.009 75.9755C195.94 75.9755 194.468 75.2101 193.588 73.9061V80.7915H189.055V61.6928H193.364L193.335 63.4821H193.391C194.412 62.2635 195.913 61.4395 198.036 61.4395C202.06 61.4395 204.612 64.5861 204.612 68.6928C204.612 72.8021 202.06 75.9755 198.009 75.9755ZM196.706 65.0127C194.778 65.0127 193.447 66.482 193.447 68.6367C193.447 70.7887 194.778 72.2634 196.706 72.2634C198.661 72.2634 199.991 70.7887 199.991 68.6367C199.991 66.482 198.661 65.0127 196.706 65.0127Z"
     fill="#FEFEFE"
     id="path30"
     style="fill:#000000" />
  <path
     fill-rule="evenodd"
     clip-rule="evenodd"
     d="M215.896 65.8594H215.696C215.44 65.718 214.846 65.5207 214.051 65.5207C213.035 65.5207 212.296 66.086 211.955 66.5394C211.614 66.9927 211.248 67.8994 211.248 69.4567V75.6647H206.715V61.694H211.248L211.222 63.678H211.275C212.07 62.1474 213.23 61.4434 214.734 61.4434C215.67 61.4434 216.15 61.694 216.15 61.694L215.896 65.8594Z"
     fill="#FEFEFE"
     id="path32"
     style="fill:#000000" />
  <path
     fill-rule="evenodd"
     clip-rule="evenodd"
     d="M231.229 69.7721H221.285C221.483 71.7801 223.013 72.6894 224.856 72.6894C226.669 72.6894 228.253 71.8947 229.048 71.3587L230.835 73.7107C230.381 74.0494 228.539 75.9747 224.203 75.9747C219.896 75.9747 216.752 73.3134 216.752 68.6921C216.752 64.0734 220.152 61.4414 224.288 61.4414C228.424 61.4414 231.285 64.1881 231.285 68.2681C231.285 68.9481 231.229 69.7721 231.229 69.7721ZM227.064 67.1911C227.037 65.9164 226.101 64.3857 224.202 64.3857C222.333 64.3857 221.37 65.8604 221.314 67.1911H227.064Z"
     fill="#FEFEFE"
     id="path34"
     style="fill:#000000" />
  <path
     fill-rule="evenodd"
     clip-rule="evenodd"
     d="M242.257 74.7561C241.235 75.5481 239.846 75.9748 237.977 75.9748C235.881 75.9748 233.67 75.3241 232.086 73.8228L233.785 71.1294C234.915 72.0921 236.787 72.8308 237.921 72.8308C239.054 72.8308 239.846 72.5454 239.846 71.6388C239.846 70.7321 237.809 70.2788 237.299 70.1108C236.758 69.9668 235.963 69.7401 235.313 69.4574C234.665 69.1748 232.934 68.2974 232.934 65.8041C232.934 63.0814 235.313 61.4121 238.23 61.4121C241.15 61.4121 242.793 62.4868 243.585 63.1401L242.113 65.8041C241.321 65.1801 239.734 64.4441 238.601 64.4441C237.526 64.4441 236.929 64.7268 236.929 65.4628C236.929 66.1988 238.006 66.5401 238.969 66.8228C239.931 67.1054 240.355 67.2494 240.95 67.4761C241.574 67.7028 242.283 68.0708 242.763 68.5241C243.219 68.9774 243.899 69.8841 243.899 71.3588C243.899 72.8014 243.275 73.9374 242.257 74.7561Z"
     fill="#FEFEFE"
     id="path36"
     style="fill:#000000" />
  <path
     fill-rule="evenodd"
     clip-rule="evenodd"
     d="M254.883 74.7561C253.864 75.5481 252.475 75.9748 250.606 75.9748C248.51 75.9748 246.299 75.3241 244.715 73.8228L246.414 71.1294C247.544 72.0921 249.416 72.8308 250.55 72.8308C251.686 72.8308 252.475 72.5454 252.475 71.6388C252.475 70.7321 250.435 70.2788 249.928 70.1108C249.39 69.9668 248.595 69.7401 247.944 69.4574C247.294 69.1748 245.563 68.2974 245.563 65.8041C245.563 63.0814 247.944 61.4121 250.862 61.4121C253.779 61.4121 255.422 62.4868 256.216 63.1401L254.742 65.8041C253.952 65.1801 252.363 64.4441 251.23 64.4441C250.152 64.4441 249.555 64.7268 249.555 65.4628C249.555 66.1988 250.635 66.5401 251.6 66.8228C252.563 67.1054 252.987 67.2494 253.582 67.4761C254.206 67.7028 254.912 68.0708 255.395 68.5241C255.848 68.9774 256.528 69.8841 256.528 71.3588C256.528 72.8014 255.904 73.9374 254.883 74.7561Z"
     fill="#FEFEFE"
     id="path38"
     style="fill:#000000" />
  <path
     fill-rule="evenodd"
     clip-rule="evenodd"
     d="M62.2933 59.3147C60.768 63.0373 58.584 66.2293 55.7493 68.8907C52.9147 71.5493 49.4907 73.624 45.4827 75.1147C41.4747 76.6053 37.024 77.3493 32.1307 77.3493C27.1653 77.3493 22.696 76.6053 18.7253 75.1147C14.752 73.624 11.384 71.5493 8.61867 68.8907C5.85067 66.2293 3.72267 63.0373 2.232 59.3147C0.744 55.5893 0 51.4613 0 46.92V0H18.1947V45.4293C18.1947 47.488 18.456 49.4373 18.9867 51.28C19.5173 53.128 20.328 54.776 21.424 56.2293C22.52 57.6827 23.9707 58.8347 25.7733 59.688C27.5733 60.5387 29.7467 60.9653 32.288 60.9653C34.8347 60.9653 37.0053 60.5387 38.808 59.688C40.6107 58.8347 42.0773 57.6827 43.208 56.2293C44.3387 54.776 45.1493 53.128 45.6427 51.28C46.1387 49.4373 46.3867 47.488 46.3867 45.4293V0H64.5787V46.92C64.5787 51.4613 63.816 55.5893 62.2933 59.3147Z"
     fill="#FEFEFE"
     id="path40"
     style="fill:#000000" />
  <path
     fill-rule="evenodd"
     clip-rule="evenodd"
     d="M136.395 23.193C136.395 27.5903 135.579 31.297 133.947 34.3103C132.318 37.329 130.118 39.7583 127.355 41.5983C124.587 43.4436 121.395 44.7903 117.776 45.6436C114.158 46.4943 110.4 46.9183 106.499 46.9183H97.4564V75.3263H79.2617V0.000976562H106.926C111.038 0.000976562 114.886 0.408977 118.467 1.22231C122.048 2.03831 125.171 3.35031 127.83 5.15831C130.491 6.96898 132.582 9.34498 134.107 12.289C135.632 15.233 136.395 18.8676 136.395 23.193ZM118.201 23.2993C118.201 21.5287 117.846 20.0727 117.14 18.9367C116.43 17.8033 115.473 16.9153 114.265 16.278C113.06 15.6407 111.694 15.214 110.169 15.0007C108.644 14.7873 107.068 14.6807 105.436 14.6807H97.457V32.4513H105.116C106.82 32.4513 108.449 32.31 110.012 32.0247C111.569 31.742 112.972 31.2433 114.214 30.5367C115.454 29.8273 116.43 28.886 117.14 27.7153C117.846 26.5447 118.201 25.0727 118.201 23.2993Z"
     fill="#FEFEFE"
     id="path42"
     style="fill:#000000" />
</svg>
