<?xml version="1.0" encoding="UTF-8" standalone="no"?>
<svg
   xmlns:dc="http://purl.org/dc/elements/1.1/"
   xmlns:cc="http://creativecommons.org/ns#"
   xmlns:rdf="http://www.w3.org/1999/02/22-rdf-syntax-ns#"
   xmlns:svg="http://www.w3.org/2000/svg"
   xmlns="http://www.w3.org/2000/svg"
   id="svg8"
   version="1.1"
   viewBox="0 0 79.210419 22.324987"
   height="22.324987mm"
   width="79.210419mm">
  <defs
     id="defs2" />
  <metadata
     id="metadata5">
    <rdf:RDF>
      <cc:Work
         rdf:about="">
        <dc:format>image/svg+xml</dc:format>
        <dc:type
           rdf:resource="http://purl.org/dc/dcmitype/StillImage" />
        <dc:title></dc:title>
      </cc:Work>
    </rdf:RDF>
  </metadata>
  <g
     transform="translate(-62.920833,-150.90001)"
     id="layer1">
    <path
       id="path828"
       d="m 63.5,151.47917 c 3.185799,0 6.637083,0 7.964497,2.44136 l 3.716767,9.22291 3.982249,-9.22291 c 1.327417,-2.44136 4.7787,-2.44136 7.964498,-2.44136 l -7.168049,18.44579 c -0.796448,1.62758 -2.123865,2.71262 -4.360404,2.72084 -0.153021,5.7e-4 -0.152799,-0.006 -0.34343,-0.006 -2.464213,-0.002 -3.79163,-1.08727 -4.588081,-2.71484 z"
       style="fill:#189cd8;fill-opacity:1;stroke:none;stroke-width:0.26835692px;stroke-linecap:butt;stroke-linejoin:miter;stroke-opacity:1" />
    <path
       id="path851"
       d="m 88.455428,172.63758 c 6.902565,0 6.902564,-4.88271 6.902564,-4.88271 v -16.2757 c -6.902563,0 -6.902564,4.88272 -6.902564,4.88272 v 16.27569"
       style="fill:#189cd8;fill-opacity:1;stroke:none;stroke-width:0.26835692px;stroke-linecap:butt;stroke-linejoin:miter;stroke-opacity:1" />
    <path
       id="path828-6"
       d="m 97.48186,151.47917 c 3.1858,0 6.63708,0 7.9645,2.44136 l 3.71676,9.22291 3.98225,-9.22291 c 1.32742,-2.44136 4.77871,-2.44136 7.9645,-2.44136 l -7.16805,18.44579 c -0.79644,1.62758 -2.12386,2.71262 -4.3604,2.72084 -0.15302,5.7e-4 -0.1528,-0.006 -0.34343,-0.006 -2.46422,-0.002 -3.79163,-1.08727 -4.58808,-2.71484 z"
       style="fill:#189cd8;fill-opacity:1;stroke:none;stroke-width:0.26835692px;stroke-linecap:butt;stroke-linejoin:miter;stroke-opacity:1" />
    <path
       id="path828-9"
       d="m 117.92408,172.64583 c 3.1858,0 6.63708,0 7.9645,-2.44136 l 3.71676,-9.2229 3.98225,9.2229 c 1.32741,2.44136 4.7787,2.44136 7.96449,2.44136 l -7.16805,-18.44579 c -0.79643,-1.62757 -2.12385,-2.71261 -4.3604,-2.72084 -0.15301,-5.8e-4 -0.15279,0.006 -0.34342,0.006 -2.46422,0.002 -3.79163,1.08726 -4.58808,2.71483 z"
       style="fill:#189cd8;fill-opacity:1;stroke:none;stroke-width:0.26835692px;stroke-linecap:butt;stroke-linejoin:miter;stroke-opacity:1" />
  </g>
</svg>
