<?xml version="1.0" encoding="UTF-8" standalone="no"?>
<!-- Created with Inkscape (http://www.inkscape.org/) -->
<svg
   xmlns:svg="http://www.w3.org/2000/svg"
   xmlns="http://www.w3.org/2000/svg"
   version="1.0"
   width="600"
   height="114"
   id="svg2180">
  <defs
     id="defs2182" />
  <g
     transform="translate(91.4326,-292.66819)"
     id="layer1">
    <g
       transform="matrix(2.2144356,0,0,2.2070166,-119.24414,121.75051)"
       style="fill-rule:evenodd"
       id="Layer_x0020_1">
  
  <g
   id="_21239384">
   <polygon
   points="106.14,103.479 110.852,103.947 110.418,106.988 105.839,106.52 106.14,103.479 "
   style="fill:#c5dcb8"
   id="_21248552" />

   <path
   d="M 224.692,83.1659 L 222.0181,90.1818 L 263.5501,90.2737 C 263.5501,90.2737 244.9455,105.7517 227.8892,107.1711 C 210.8275,108.5931 191.0585,102.3756 168.2818,100.1821 C 132.3757,96.7213 64.6018,102.9126 12.8268,128.8021 L 83.0346,128.8378 C 83.0346,128.8378 106.0399,104.1114 167.1569,105.8866 C 194.3009,106.6759 216.788,119.7214 246.8287,108.5056 C 264.6814,101.8381 280.7683,83.9374 281.4589,83.1659 L 224.6924,83.1659 L 224.692,83.1659 z "
   style="fill:#0062a4;fill-rule:nonzero"
   id="_21247696" />

   <polygon
   points="139.266,78.3098 161.185,78.3126 159.893,81.2959 150.88,81.3054 144.759,96.475 140.826,96.475 146.959,81.3607 138.024,81.3323 139.266,78.3098 "
   style="fill:#db3935;fill-rule:nonzero"
   id="_21246872" />

   <path
   d="M 153.715,84.8927 C 153.9268,84.3213 154.144,83.7201 154.3668,83.0958 L 157.8092,83.0958 L 156.8678,85.6208 L 156.9235,85.6208 C 157.8371,84.1635 159.8591,82.7844 161.5302,82.7844 C 161.987,82.7844 162.466,82.8111 162.8837,82.9131 L 161.5079,86.3237 C 161.1291,86.1923 160.6333,86.1159 160.1765,86.1159 C 157.6143,86.1159 155.9766,88.3274 155.1243,90.4853 L 152.7459,96.4974 L 149.1363,96.4974 L 153.715,84.8927 L 153.715,84.8927 z "
   style="fill:#db3935;fill-rule:nonzero"
   id="_21246384" />

   <path
   d="M 197.799,85.3149 C 198.8182,85.3149 199.7596,85.598 200.6453,85.9372 L 202.1382,82.907 C 200.7623,82.8429 199.3865,82.7622 198.0663,82.7622 C 195.2144,82.7622 191.8609,83.879 191.2873,87.0289 C 190.6802,90.3872 195.4427,90.2056 195.0528,92.3647 C 194.8578,93.4559 193.4709,93.4938 192.2565,93.4938 C 191.0588,93.4938 188.8029,93.4938 187.0427,93.4938 L 188.4687,89.97 C 188.8085,89.1379 189.243,88.0656 189.4546,87.054 C 189.9336,84.7886 187.6778,83.1542 185.6725,82.6351 C 184.2185,82.2602 181.9459,82.277 180.3472,83.1353 C 180.3472,83.1353 178.2194,83.8728 177.0107,86.7393 L 173.0446,96.475 L 176.6541,96.475 L 179.3558,89.736 C 180.1802,87.7303 180.9433,85.0905 184.007,85.4676 C 185.1042,85.6024 185.834,86.2235 185.6335,87.3448 C 185.4552,88.3319 185.0764,89.2415 184.7199,90.1512 L 182.23,96.475 L 185.8395,96.475 L 185.8395,96.4683 C 187.8503,96.4672 190.5799,96.465 191.8109,96.4828 C 195.5262,96.5419 198.1666,95.7486 198.796,92.2589 C 199.392,88.9808 194.8188,88.357 195.1252,86.669 C 195.3202,85.598 196.7183,85.3149 197.799,85.3149 L 197.799,85.3149 z "
   style="fill:#db3935;fill-rule:nonzero"
   id="_21244504" />

   <path
   d="M 133.98,93.4965 L 135.4059,89.9729 C 135.7457,89.1395 136.2081,88.0734 136.3919,87.0573 C 136.8709,84.4026 134.6093,82.9471 132.6097,82.6384 C 131.1225,82.4083 128.8777,82.2792 127.2845,83.1364 C 127.2845,83.1364 125.1567,83.8757 123.9423,86.7421 L 119.9819,96.4773 L 123.5859,96.4773 L 126.2874,89.7395 C 127.396,87.0936 128.0921,85.4152 130.9442,85.4704 C 132.0972,85.4932 132.7713,86.2257 132.5707,87.3475 C 132.3925,88.3341 132.0081,89.2442 131.6571,90.1545 L 129.1617,96.4773 L 132.7768,96.4705 C 132.7713,96.4288 134.292,92.6633 133.98,93.4965 L 133.98,93.4965 z "
   style="fill:#0062a4;fill-rule:nonzero"
   id="_21243880" />

   <path
   d="M 207.018,78.3254 L 210.6053,78.2769 L 209.3298,81.1639 L 205.8038,81.1996 L 207.018,78.3254 z M 205.0184,83.1181 L 208.6279,83.1181 L 203.2359,96.5196 L 199.6319,96.5196 L 205.0184,83.1181 z "
   style="fill:#db3935;fill-rule:nonzero"
   id="_21242816" />

   <path
   d="M 215.646,92.4872 C 215.6235,92.4839 215.529,92.4795 214.8827,92.4738 C 213.3954,92.4599 213.5404,91.6673 214.114,90.0664 C 214.4371,89.1807 215.813,85.7344 215.813,85.7344 L 219.0438,85.7344 L 220.0742,83.1855 L 216.8435,83.1855 L 218.8154,78.3444 L 215.2002,78.3699 L 213.2284,83.1855 L 210.6215,83.1855 L 209.5911,85.7344 L 212.2035,85.7344 L 210.3597,90.2625 C 209.1063,93.5406 209.3125,96.4716 214.7824,96.4795 L 214.7602,96.4705 L 271.4768,96.4844 C 271.4768,96.4844 252.1034,115.6908 223.2047,115.7855 C 197.8879,115.8629 188.5187,109.3785 167.8752,108.7235 C 135.1945,107.6896 104.4019,116.3933 90.0195,129.06 L 135.1052,129.0963 C 135.1052,129.0963 155.2808,116.9775 179.5171,119.5806 C 203.759,122.1868 225.5332,128.0156 251.4571,116.3119 C 268.8867,108.4439 282.6897,93.4103 283.5086,92.5029 L 215.646,92.4872 L 215.646,92.4872 z "
   style="fill:#db3935;fill-rule:nonzero"
   id="_21425896" />

   <path
   d="M 164.934,94.3812 C 167.8527,94.3812 169.2731,93.1245 170.376,90.4006 L 168.7161,90.4262 C 166.8167,90.4262 163.6138,90.7103 163.2015,92.9763 C 163.0344,93.9143 163.9424,94.3812 164.934,94.3812 z M 168.7273,94.5633 L 168.666,94.5633 C 167.0506,96.0734 165.5521,96.9329 163.3965,96.9329 C 160.6781,96.9329 158.9961,95.5771 159.4416,93.1078 C 160.2493,88.6844 165.8529,88.3446 169.5294,88.3446 L 171.2394,88.3792 C 171.4177,88.0154 171.6015,87.4105 171.674,87.0194 C 171.919,85.6653 169.9082,85.4526 168.5378,85.4526 C 166.811,85.4526 165.0285,85.9066 163.363,86.5566 L 164.6665,83.2289 C 166.4267,82.708 167.9585,82.6992 169.702,82.8045 C 172.6321,82.9782 175.3838,83.8929 174.8155,87.044 C 174.4924,88.8393 172.0416,93.9857 171.2394,96.5102 L 167.9697,96.5102 L 168.7273,94.5633 z "
   style="fill:#db3935;fill-rule:nonzero"
   id="_21425408" />

   <path
   d="M 96.6537,82.849 L 99.2661,82.849 L 101.1154,78.3605 L 104.6972,78.3605 L 102.8757,82.849 L 106.1064,82.849 L 105.0815,85.4013 L 101.8452,85.4013 L 99.4667,91.2534 C 99.3274,91.5677 99.1603,92.0344 99.0711,92.5569 C 98.9263,93.3641 99.3999,93.8581 100.2075,93.8581 C 100.8536,93.8581 101.5277,93.7266 102.0123,93.5456 L 100.9038,96.2517 C 100.2633,96.3815 99.5279,96.5642 98.9096,96.5642 C 96.4642,96.5642 94.9045,95.6256 95.3725,93.0505 C 95.5619,92.0099 95.9629,90.9927 96.3974,89.9277 L 98.2412,85.4013 L 95.6288,85.4013 L 96.6537,82.849 L 96.6537,82.849 z "
   style="fill:#0062a4;fill-rule:nonzero"
   id="_21424488" />

   <path
   d="M 33.3418,84.8783 C 33.5591,84.3063 33.7876,83.7096 34.0159,83.0835 L 37.7535,83.0835 L 36.7676,85.6062 L 36.8288,85.6062 C 37.7925,84.1507 39.9705,82.7705 41.7808,82.7705 C 42.2766,82.7705 42.7947,82.7966 43.2458,82.8986 L 41.8088,86.3081 C 41.3965,86.1807 40.8562,86.1004 40.3604,86.1004 C 37.5864,86.1004 35.8429,88.3134 34.9573,90.4753 L 32.4674,96.4844 L 28.5571,96.4844 L 33.3418,84.8783 L 33.3418,84.8783 z "
   style="fill:#0062a4;fill-rule:nonzero"
   id="_21423640" />

   <path
   d="M 56.6033,87.7347 C 58.3635,83.3096 60.9984,82.4006 64.3907,82.6529 C 65.4991,82.7349 68.1617,83.6372 68.0837,85.7265 C 68.0837,85.7265 70.6238,82.4874 75.0911,82.7855 C 77.3359,82.9332 78.9681,84.4226 78.6003,86.453 C 78.3832,87.6523 77.7872,89.0042 77.2691,90.0965 L 74.5285,96.4895 L 70.6238,96.4912 L 73.381,89.9678 C 73.732,89.1596 74.2499,87.9101 74.3949,87.1058 C 74.5732,86.1143 73.8434,85.4938 72.8519,85.4938 C 70.1336,85.4938 68.9526,88.3017 68.1283,90.1227 L 65.4266,96.4985 L 61.5163,96.4985 L 64.2737,89.9678 C 64.6245,89.1596 65.1426,87.9101 65.2874,87.1058 C 65.4713,86.1143 64.736,85.4938 63.7445,85.4938 C 61.0874,85.4938 60.0013,88.3319 59.1769,90.1305 L 56.5255,96.4716 L 52.8769,96.4784 C 52.8769,96.4784 55.9627,89.3523 56.6033,87.7347 L 56.6033,87.7347 z "
   style="fill:#0062a4;fill-rule:nonzero"
   id="_21422176" />

   <path
   d="M 88.5043,85.5055 C 87.3959,85.5055 85.3961,85.4832 85.3738,85.5405 C 84.5217,87.6384 83.6973,88.9167 83.363,90.7711 C 83.051,92.4872 83.4633,93.9194 85.3628,93.9194 C 88.6325,93.9194 90.337,90.2759 90.7213,88.1681 C 91.0166,86.5276 90.3148,85.5055 88.5043,85.5055 z M 81.7588,84.6527 C 82.015,84.0044 82.2321,83.4841 82.3938,82.9131 L 86.0979,82.9131 C 86.0979,82.9131 88.3095,82.9164 90.298,82.9164 C 94.0301,82.9164 95.4058,84.8627 94.8322,88.0361 C 94.0746,92.2266 90.6768,96.6237 85.4518,96.6237 C 83.7306,96.6237 82.0483,96.1034 81.742,94.2314 L 81.6863,94.2314 L 78.4835,101.8998 L 74.5787,101.8998 L 81.7588,84.6527 L 81.7588,84.6527 z "
   style="fill:#0062a4;fill-rule:nonzero"
   id="_21302040" />

   <path
   d="M 116.824,88.5068 C 117.1416,86.7633 116.7183,85.305 114.3621,85.305 C 111.2037,85.305 109.0759,88.3475 108.6303,90.7711 C 108.3127,92.539 108.8976,93.9194 111.1926,93.9194 C 114.2952,93.9194 116.4119,90.7995 116.824,88.5068 z M 121.0074,88.48 C 120.1552,93.1891 115.8048,96.6237 110.3738,96.6237 C 106.0234,96.6237 103.8231,94.2832 104.5082,90.5104 C 105.316,86.0352 109.8724,82.5994 115.036,82.5994 C 119.1804,82.5994 121.6758,84.7864 121.0074,88.48 z "
   style="fill:#0062a4;fill-rule:nonzero"
   id="_21300384" />

   <path
   d="M 44.566,94.3394 C 47.4849,94.3394 48.9053,93.0827 50.0026,90.3594 L 48.3483,90.3861 C 46.4488,90.3861 43.2458,90.6697 42.8337,92.9346 C 42.6665,93.8726 43.5745,94.3394 44.566,94.3394 z M 48.3538,94.5243 L 48.2981,94.5243 C 46.6828,96.0327 45.1843,96.8912 43.023,96.8912 C 40.3103,96.8912 38.6281,95.5364 39.0737,93.0666 C 39.8758,88.6421 45.4851,88.3028 49.1614,88.3028 L 50.8659,88.3402 C 51.0497,87.9749 51.2337,87.3693 51.3005,86.9782 C 51.5455,85.6247 49.5402,85.4108 48.1645,85.4108 C 46.4432,85.4108 45.1788,85.6653 43.5133,86.316 L 44.7888,83.0183 C 46.549,82.4964 47.5795,82.463 49.323,82.5683 C 52.2474,82.7437 55.0158,83.8506 54.4422,87.0017 C 54.1191,88.7986 51.6737,93.9456 50.8659,96.4705 L 47.5962,96.4705 L 48.3538,94.5243 L 48.3538,94.5243 z "
   style="fill:#0062a4;fill-rule:nonzero"
   id="_21241832" />

   <path
   d="M 27.4709,82.747 C 27.1924,83.7118 26.2175,84.1809 25.5324,84.2699 C 24.2957,84.4304 21.455,84.2878 21.455,84.2878 L 21.455,84.2856 L 21.4493,84.2812 L 23.0258,80.4761 L 23.0313,80.4761 C 23.8111,80.4744 24.4629,80.4744 24.6968,80.4772 C 27.2704,80.5173 27.8385,81.4909 27.4709,82.747 z M 24.9531,91.3665 C 24.1509,93.8698 20.1293,93.6113 20.1293,93.6113 L 17.6615,93.6069 L 19.8117,88.3909 C 19.8117,88.3909 20.9982,88.3709 21.5496,88.372 C 25.2873,88.3808 25.3819,90.0252 24.9531,91.3665 L 24.9531,91.3665 z M 29.192,78.0892 C 27.7104,77.3829 25.5769,77.4442 25.5769,77.4442 L 20.4857,77.4442 L 19.6613,79.4429 L 19.6613,79.4422 L 17.5224,84.6209 L 12.5592,96.4683 C 12.5592,96.4683 18.174,96.4606 20.9759,96.4644 C 27.5767,96.4734 28.4401,92.509 28.7296,91.5253 C 29.6488,88.4154 26.0059,86.9392 26.0059,86.9392 C 27.7772,86.741 29.5262,85.9277 30.3396,84.6465 C 31.487,82.8468 31.8603,79.357 29.192,78.0892 L 29.192,78.0892 z "
   style="fill:#0062a4;fill-rule:nonzero"
   id="_21238880" />

  </g>

 </g>
  </g>
</svg>
